<svg width="296" height="287" viewBox="0 0 296 287" fill="none" xmlns="http://www.w3.org/2000/svg">
<g clip-path="url(#clip0)" filter="url(#filter0_d)">
<mask id="mask0" mask-type="alpha" maskUnits="userSpaceOnUse" x="39" y="34" width="265" height="218">
<path d="M196.092 117.257L216.057 117.257L216.057 112.914C216.057 69.7415 251.056 34.743 294.229 34.743L304 34.743L304 251.886L294.229 251.886C251.056 251.886 216.057 216.887 216.057 173.714L216.057 169.372L196.092 169.372C187.201 188.086 169.032 201.539 147.528 203.783C146.634 210.107 141.199 214.972 134.629 214.972L119.429 214.972C112.973 214.972 107.614 210.276 106.58 204.114L99.8857 204.114C66.3068 204.114 39.0857 176.893 39.0857 143.314C39.0857 109.735 66.3068 82.5144 99.8857 82.5144L106.58 82.5144C107.614 76.3525 112.973 71.6572 119.429 71.6572L134.629 71.6572C141.199 71.6572 146.634 76.5216 147.528 82.8457C169.032 85.0899 187.201 98.5424 196.092 117.257Z" fill="white"/>
</mask>
<g mask="url(#mask0)">
<path d="M196.092 117.257L216.057 117.257L216.057 112.914C216.057 69.7415 251.056 34.743 294.229 34.743L304 34.743L304 251.886L294.229 251.886C251.056 251.886 216.057 216.887 216.057 173.714L216.057 169.372L196.092 169.372C187.201 188.086 169.032 201.539 147.528 203.783C146.634 210.107 141.199 214.972 134.629 214.972L119.429 214.972C112.973 214.972 107.614 210.276 106.58 204.114L99.8857 204.114C66.3068 204.114 39.0857 176.893 39.0857 143.314C39.0857 109.735 66.3068 82.5144 99.8857 82.5144L106.58 82.5144C107.614 76.3525 112.973 71.6572 119.429 71.6572L134.629 71.6572C141.199 71.6572 146.634 76.5216 147.528 82.8457C169.032 85.0899 187.201 98.5424 196.092 117.257Z" fill="#D0C6AC"/>
<path d="M39.0857 6.10352e-05L39.0857 286.629L304 286.629L304 4.94554e-05L39.0857 6.10352e-05Z" fill="#FFDBB4"/>
<path fill-rule="evenodd" clip-rule="evenodd" d="M124.857 82.5144L149.829 82.5144C183.408 82.5144 210.629 109.735 210.629 143.314C210.629 176.893 183.408 204.114 149.829 204.114L124.857 204.114L141.143 204.114C174.722 204.114 201.943 176.893 201.943 143.314C201.943 109.735 174.722 82.5144 141.143 82.5144L124.857 82.5144Z" fill="black" fill-opacity="0.1"/>
</g>
<mask id="mask1" mask-type="alpha" maskUnits="userSpaceOnUse" x="198" y="34" width="106" height="218">
<path fill-rule="evenodd" clip-rule="evenodd" d="M198.763 169.372C200.94 188.826 206.885 203.811 222.186 204.11C234.045 232.184 261.836 251.886 294.228 251.886L304 251.886L304 34.743L294.228 34.743C261.836 34.743 234.045 54.4448 222.186 82.5189C206.885 82.8182 200.94 97.8027 198.763 117.257L219.314 117.257C233.705 117.257 245.371 128.923 245.371 143.314C245.371 157.705 233.705 169.372 219.314 169.372L198.763 169.372Z" fill="white"/>
</mask>
<g mask="url(#mask1)">
<path fill-rule="evenodd" clip-rule="evenodd" d="M198.763 169.372C200.94 188.826 206.885 203.811 222.186 204.11C234.045 232.184 261.836 251.886 294.228 251.886L304 251.886L304 34.743L294.228 34.743C261.836 34.743 234.045 54.4448 222.186 82.5189C206.885 82.8182 200.94 97.8027 198.763 117.257L219.314 117.257C233.705 117.257 245.371 128.923 245.371 143.314C245.371 157.705 233.705 169.372 219.314 169.372L198.763 169.372Z" fill="#B7C1DB"/>
<path d="M184.571 6.10352e-05L184.571 286.629L304 286.629L304 5.58148e-05L184.571 6.10352e-05Z" fill="#5A6AFF"/>
<path fill-rule="evenodd" clip-rule="evenodd" d="M251.602 175.886L304 175.886L304 183.486L247.706 183.486C249.128 181.093 250.432 178.549 251.602 175.886ZM247.706 103.143L291.514 103.143C293.613 103.143 295.314 104.844 295.314 106.943C295.314 109.042 293.613 110.743 291.514 110.743L251.602 110.743C250.432 108.079 249.128 105.536 247.706 103.143Z" fill="#F4F4F4"/>
<path fill-rule="evenodd" clip-rule="evenodd" d="M198.386 187.872C201.477 204.213 207.635 215.514 219.648 215.514C241.05 215.514 258.4 179.645 258.4 143.314C258.4 106.984 241.05 71.1144 219.648 71.1144C207.635 71.1144 201.477 82.4159 198.386 98.7568C202.024 88.8931 208.138 82.5144 218.312 82.5144C240.452 82.5144 258.4 112.72 258.4 143.314C258.4 173.909 240.452 204.114 218.312 204.114C208.138 204.114 202.024 197.736 198.386 187.872Z" fill="black" fill-opacity="0.16"/>
</g>
<mask id="mask2" mask-type="alpha" maskUnits="userSpaceOnUse" x="159" y="122" width="22" height="42">
<path fill-rule="evenodd" clip-rule="evenodd" d="M161.91 163.815C172.216 162.666 180.229 153.926 180.229 143.314C180.229 132.67 172.166 123.908 161.815 122.803C160.982 122.714 159.6 123.645 159.6 124.811C159.6 140.981 159.6 153.37 159.6 161.677C159.6 162.85 160.879 163.93 161.91 163.815Z" fill="white"/>
</mask>
<g mask="url(#mask2)">
<path fill-rule="evenodd" clip-rule="evenodd" d="M161.91 163.815C172.216 162.666 180.229 153.926 180.229 143.314C180.229 132.67 172.166 123.908 161.815 122.803C160.982 122.714 159.6 123.645 159.6 124.811C159.6 140.981 159.6 153.37 159.6 161.677C159.6 162.85 160.879 163.93 161.91 163.815Z" fill="black" fill-opacity="0.7"/>
<path d="M147.657 131.371L147.657 154.171C147.657 157.17 150.088 159.6 153.086 159.6L159.6 159.6C162.598 159.6 165.029 157.17 165.029 154.171L165.029 131.371C165.029 128.373 162.598 125.943 159.6 125.943L153.086 125.943C150.088 125.943 147.657 128.373 147.657 131.371Z" fill="white"/>
<path d="M195.429 148.743C195.429 142.147 190.082 136.8 183.486 136.8C176.89 136.8 171.543 142.147 171.543 148.743C171.543 155.339 176.89 160.686 183.486 160.686C190.082 160.686 195.429 155.339 195.429 148.743Z" fill="#FF4F6D"/>
<path d="M195.429 137.886C195.429 131.29 190.082 125.943 183.486 125.943C176.89 125.943 171.543 131.29 171.543 137.886C171.543 144.482 176.89 149.829 183.486 149.829C190.082 149.829 195.429 144.482 195.429 137.886Z" fill="#FF4F6D"/>
</g>
<path fill-rule="evenodd" clip-rule="evenodd" d="M141.143 156.343C145.94 156.343 149.829 150.51 149.829 143.314C149.829 136.119 145.94 130.286 141.143 130.286" fill="black" fill-opacity="0.16"/>
<path fill-rule="evenodd" clip-rule="evenodd" d="M122.086 186.569C117.961 184.564 115.086 180.05 115.086 174.803C115.086 169.574 117.941 165.073 122.042 163.058C123.26 162.459 124.257 163.311 123.518 164.17C121.231 166.831 119.802 170.611 119.802 174.803C119.802 178.864 121.143 182.537 123.306 185.182C124.097 186.149 123.292 187.155 122.086 186.569Z" fill="black" fill-opacity="0.6"/>
<path fill-rule="evenodd" clip-rule="evenodd" d="M122.086 123.598C117.961 121.593 115.086 117.079 115.086 111.831C115.086 106.602 117.941 102.102 122.042 100.086C123.26 99.4876 124.257 100.339 123.518 101.199C121.231 103.86 119.802 107.639 119.802 111.831C119.802 115.892 121.143 119.566 123.306 122.211C124.097 123.178 123.292 124.184 122.086 123.598Z" fill="black" fill-opacity="0.6"/>
<path fill-rule="evenodd" clip-rule="evenodd" d="M95.7039 175.291C95.9952 181.596 100.576 191.789 106.934 191.526C107.142 191.518 107.234 191.212 107.074 191.063C103.861 188.072 100.614 166.835 102.335 159.355C102.492 158.67 101.817 158.15 101.329 158.583C97.1509 162.299 95.4375 169.643 95.7039 175.291Z" fill="black" fill-opacity="0.6"/>
<path fill-rule="evenodd" clip-rule="evenodd" d="M95.7039 110.251C95.9952 103.947 100.576 93.7539 106.934 94.0165C107.142 94.0252 107.234 94.3309 107.074 94.4802C103.861 97.4712 100.614 118.708 102.335 126.188C102.492 126.873 101.817 127.393 101.329 126.959C97.1509 123.244 95.4375 115.9 95.7039 110.251Z" fill="black" fill-opacity="0.6"/>
<mask id="mask3" mask-type="alpha" maskUnits="userSpaceOnUse" x="0" y="0" width="304" height="287">
<path d="M-1.25289e-05 6.10352e-05L0 286.629L304 286.629L304 4.77469e-05L-1.25289e-05 6.10352e-05Z" fill="white"/>
</mask>
<g mask="url(#mask3)">
<mask id="mask4" mask-type="alpha" maskUnits="userSpaceOnUse" x="21" y="42" width="197" height="203">
<path fill-rule="evenodd" clip-rule="evenodd" d="M106.79 204.114L141.143 204.114C165.397 204.114 186.334 189.913 196.092 169.371L210.352 169.371C213.271 190.692 218.406 207.761 217.143 219.983C215.548 235.425 184.35 243.747 157.429 244.286C123.95 244.956 54.0631 213.539 40.1714 201.943C29.8667 193.341 21.2264 169.702 21.7143 143.314C22.2021 116.926 28.0246 92.4357 39.0857 83.5999C55.8357 70.2197 119.514 42.4855 157.429 42.3427C184.354 42.2414 211.345 52.6979 212.8 67.3142C213.997 79.3435 211.184 96.1123 209.54 117.257L196.092 117.257C186.334 96.716 165.397 82.5144 141.143 82.5144L110.73 82.5144C105.456 92.8517 99.0694 102.206 91.5703 110.576C97.32 107.092 102.217 103.307 106.262 99.2201C98.0322 128.553 84.0887 151.885 64.4317 169.219C82.3075 177.884 96.427 189.516 106.79 204.114Z" fill="white"/>
</mask>
<g mask="url(#mask4)">
<path fill-rule="evenodd" clip-rule="evenodd" d="M106.79 204.114L141.143 204.114C165.397 204.114 186.334 189.913 196.092 169.371L210.352 169.371C213.271 190.692 218.406 207.761 217.143 219.983C215.548 235.425 184.35 243.747 157.429 244.286C123.95 244.956 54.0631 213.539 40.1714 201.943C29.8667 193.341 21.2264 169.702 21.7143 143.314C22.2021 116.926 28.0246 92.4357 39.0857 83.5999C55.8357 70.2197 119.514 42.4855 157.429 42.3427C184.354 42.2414 211.345 52.6979 212.8 67.3142C213.997 79.3435 211.184 96.1123 209.54 117.257L196.092 117.257C186.334 96.716 165.397 82.5144 141.143 82.5144L110.73 82.5144C105.456 92.8517 99.0694 102.206 91.5703 110.576C97.32 107.092 102.217 103.307 106.262 99.2201C98.0322 128.553 84.0887 151.885 64.4317 169.219C82.3075 177.884 96.427 189.516 106.79 204.114Z" fill="#E6E6E6"/>
<path d="M20.6285 -41.2571L20.6285 245.372L324.629 245.372L324.629 -41.2571L20.6285 -41.2571Z" fill="#4A312C"/>
</g>
<g filter="url(#filter1_d)">
<path d="M144.4 176.971L144.4 179.966C144.4 195.087 136.079 204.114 122.143 204.114C110.881 204.114 99.8857 202.142 99.8857 178.568L99.8857 175.375C99.8857 151.801 110.881 149.829 122.143 149.829C135.246 149.829 144.4 160.988 144.4 176.971ZM106.4 178.724C106.4 199.771 113.827 199.771 123.23 199.771C130.907 199.771 140.057 196.388 140.057 180.26L140.057 176.971C140.057 163.547 133.138 154.171 123.23 154.171C113.827 154.171 106.4 154.171 106.4 175.218L106.4 178.724Z" fill="#252C2F"/>
<path d="M144.4 109.657L144.4 112.651C144.4 127.773 136.079 136.8 122.143 136.8C110.881 136.8 99.8857 134.827 99.8857 111.253L99.8857 108.061C99.8857 84.4871 110.881 82.5143 122.143 82.5143C135.246 82.5143 144.4 93.6741 144.4 109.657ZM106.4 111.41C106.4 132.457 113.827 132.457 123.23 132.457C130.907 132.457 140.057 129.07 140.057 112.946L140.057 109.657C140.057 96.2324 133.138 86.8572 123.23 86.8572C113.827 86.8572 106.4 86.8572 106.4 107.904L106.4 111.41Z" fill="#252C2F"/>
<path d="M106.152 210.678C105.419 209.927 99.8857 201.715 99.8857 178.6C99.8857 159.219 101.897 155.116 104.936 148.906L105.161 148.451C105.313 148.019 106.063 145.811 106.146 143.228C106.045 140.875 105.407 138.863 105.203 138.275C101.755 131.186 99.8857 124.248 99.8857 108.029C99.8857 84.9133 105.419 76.7013 106.152 75.9507C106.152 74.1768 107.553 72.7429 109.285 72.7429L112.418 72.7429C114.151 72.7429 115.551 74.1768 115.551 75.9507C115.551 75.9507 115.551 83.4437 118.685 83.4437C121.818 83.4437 114.151 85.5741 112.418 85.5741L109.367 85.5741C107.869 89.4862 105.082 96.4892 105.082 108.029C105.082 120.885 107.362 127.288 109.626 132.78L109.774 132.719L111.93 132.722L117.739 135.129L116.563 138.102C116.458 138.368 116.27 138.941 116.074 139.735C115.527 141.95 115.361 144.228 115.774 146.241C115.926 146.98 116.154 147.666 116.461 148.295L117.863 151.164L112.259 154.034L109.768 153.906L109.556 153.819C107.349 158.556 105.082 162.923 105.082 178.6C105.082 190.139 107.868 197.142 109.366 201.055L112.418 201.055C114.151 201.055 121.818 204.262 118.685 204.262C115.551 204.262 115.551 210.678 115.551 210.678C115.551 212.449 114.151 213.886 112.418 213.886L109.285 213.886C107.553 213.886 106.152 212.449 106.152 210.678Z" fill="#252C2F"/>
</g>
</g>
</g>
<defs>
<filter id="filter0_d" x="-10" y="-5.99994" width="324" height="306.629" filterUnits="userSpaceOnUse" color-interpolation-filters="sRGB">
<feFlood flood-opacity="0" result="BackgroundImageFix"/>
<feColorMatrix in="SourceAlpha" type="matrix" values="0 0 0 0 0 0 0 0 0 0 0 0 0 0 0 0 0 0 127 0"/>
<feOffset dy="4"/>
<feGaussianBlur stdDeviation="5"/>
<feColorMatrix type="matrix" values="0 0 0 0 0 0 0 0 0 0 0 0 0 0 0 0 0 0 0.25 0"/>
<feBlend mode="normal" in2="BackgroundImageFix" result="effect1_dropShadow"/>
<feBlend mode="normal" in="SourceGraphic" in2="effect1_dropShadow" result="shape"/>
</filter>
<filter id="filter1_d" x="95.8857" y="70.7429" width="52.5143" height="149.143" filterUnits="userSpaceOnUse" color-interpolation-filters="sRGB">
<feFlood flood-opacity="0" result="BackgroundImageFix"/>
<feColorMatrix in="SourceAlpha" type="matrix" values="0 0 0 0 0 0 0 0 0 0 0 0 0 0 0 0 0 0 127 0"/>
<feOffset dy="2"/>
<feGaussianBlur stdDeviation="2"/>
<feColorMatrix type="matrix" values="0 0 0 0 0 0 0 0 0 0 0 0 0 0 0 0 0 0 0.2 0"/>
<feBlend mode="normal" in2="BackgroundImageFix" result="effect1_dropShadow"/>
<feBlend mode="normal" in="SourceGraphic" in2="effect1_dropShadow" result="shape"/>
</filter>
<clipPath id="clip0">
<rect width="286.629" height="304" fill="white" transform="translate(0 286.629) rotate(-90)"/>
</clipPath>
</defs>
</svg>
