<svg width="304" height="287" viewBox="0 0 304 287" fill="none" xmlns="http://www.w3.org/2000/svg">
<g clip-path="url(#clip0)" filter="url(#filter0_d)">
<mask id="mask0" mask-type="alpha" maskUnits="userSpaceOnUse" x="39" y="34" width="265" height="219">
<path d="M196.092 117.409L216.057 117.409L216.057 113.061C216.057 69.8318 251.056 34.7879 294.229 34.7879L304 34.7879L304 252.212L294.229 252.212C251.056 252.212 216.057 217.168 216.057 173.939L216.057 169.591L196.092 169.591C187.201 188.33 169.032 201.8 147.528 204.047C146.634 210.379 141.199 215.25 134.629 215.25L119.429 215.25C112.973 215.25 107.614 210.549 106.58 204.379L99.8857 204.379C66.3068 204.379 39.0857 177.122 39.0857 143.5C39.0857 109.878 66.3068 82.6212 99.8857 82.6212L106.58 82.6212C107.614 76.4513 112.973 71.75 119.429 71.75L134.629 71.75C141.199 71.75 146.634 76.6206 147.528 82.9529C169.032 85.2001 187.201 98.67 196.092 117.409Z" fill="white"/>
</mask>
<g mask="url(#mask0)">
<path d="M196.092 117.409L216.057 117.409L216.057 113.061C216.057 69.8318 251.056 34.7879 294.229 34.7879L304 34.7879L304 252.212L294.229 252.212C251.056 252.212 216.057 217.168 216.057 173.939L216.057 169.591L196.092 169.591C187.201 188.33 169.032 201.8 147.528 204.047C146.634 210.379 141.199 215.25 134.629 215.25L119.429 215.25C112.973 215.25 107.614 210.549 106.58 204.379L99.8857 204.379C66.3068 204.379 39.0857 177.122 39.0857 143.5C39.0857 109.878 66.3068 82.6212 99.8857 82.6212L106.58 82.6212C107.614 76.4513 112.973 71.75 119.429 71.75L134.629 71.75C141.199 71.75 146.634 76.6206 147.528 82.9529C169.032 85.2001 187.201 98.67 196.092 117.409Z" fill="#D0C6AC"/>
<path d="M39.0857 0L39.0857 287L304 287L304 3.15907e-06L39.0857 0Z" fill="#FFDBB4"/>
<path fill-rule="evenodd" clip-rule="evenodd" d="M124.857 82.6212L149.829 82.6212C183.408 82.6212 210.629 109.878 210.629 143.5C210.629 177.122 183.408 204.379 149.829 204.379L124.857 204.379L141.143 204.379C174.722 204.379 201.943 177.122 201.943 143.5C201.943 109.878 174.722 82.6212 141.143 82.6212L124.857 82.6212Z" fill="black" fill-opacity="0.1"/>
</g>
<mask id="mask1" mask-type="alpha" maskUnits="userSpaceOnUse" x="198" y="34" width="106" height="219">
<path fill-rule="evenodd" clip-rule="evenodd" d="M198.763 169.591C200.94 189.071 206.885 204.075 222.186 204.374C234.045 232.485 261.836 252.212 294.228 252.212L304 252.212L304 34.7879L294.228 34.7879C261.836 34.7879 234.045 54.5153 222.186 82.6258C206.885 82.9255 200.94 97.9293 198.763 117.409L219.314 117.409C233.705 117.409 245.371 129.09 245.371 143.5C245.371 157.91 233.705 169.591 219.314 169.591L198.763 169.591Z" fill="white"/>
</mask>
<g mask="url(#mask1)">
<path fill-rule="evenodd" clip-rule="evenodd" d="M198.763 169.591C200.94 189.071 206.885 204.075 222.186 204.374C234.045 232.485 261.836 252.212 294.228 252.212L304 252.212L304 34.7879L294.228 34.7879C261.836 34.7879 234.045 54.5153 222.186 82.6258C206.885 82.9255 200.94 97.9293 198.763 117.409L219.314 117.409C233.705 117.409 245.371 129.09 245.371 143.5C245.371 157.91 233.705 169.591 219.314 169.591L198.763 169.591Z" fill="#B7C1DB"/>
<path d="M184.571 0L184.571 287L304 287L304 1.42417e-06L184.571 0Z" fill="#5A6AFF"/>
<path fill-rule="evenodd" clip-rule="evenodd" d="M251.602 176.114L304 176.114L304 183.724L247.706 183.724C249.128 181.328 250.432 178.781 251.602 176.114ZM247.706 103.277L291.514 103.277C293.613 103.277 295.314 104.98 295.314 107.081C295.314 109.183 293.613 110.886 291.514 110.886L251.602 110.886C250.432 108.219 249.128 105.672 247.706 103.277Z" fill="#F4F4F4"/>
<path fill-rule="evenodd" clip-rule="evenodd" d="M198.386 188.115C201.477 204.477 207.635 215.794 219.648 215.794C241.05 215.794 258.4 179.878 258.4 143.5C258.4 107.122 241.05 71.2065 219.648 71.2065C207.635 71.2065 201.477 82.5226 198.386 98.8847C202.024 89.0082 208.138 82.6212 218.312 82.6212C240.452 82.6212 258.4 112.866 258.4 143.5C258.4 174.134 240.452 204.379 218.312 204.379C208.138 204.379 202.024 197.992 198.386 188.115Z" fill="black" fill-opacity="0.16"/>
</g>
<mask id="mask2" mask-type="alpha" maskUnits="userSpaceOnUse" x="159" y="122" width="22" height="43">
<path fill-rule="evenodd" clip-rule="evenodd" d="M161.91 164.027C172.216 162.877 180.229 154.126 180.229 143.5C180.229 132.842 172.166 124.069 161.815 122.962C160.982 122.873 159.6 123.805 159.6 124.973C159.6 141.164 159.6 153.569 159.6 161.887C159.6 163.061 160.879 164.142 161.91 164.027Z" fill="white"/>
</mask>
<g mask="url(#mask2)">
<path fill-rule="evenodd" clip-rule="evenodd" d="M161.91 164.027C172.216 162.877 180.229 154.126 180.229 143.5C180.229 132.842 172.166 124.069 161.815 122.962C160.982 122.873 159.6 123.805 159.6 124.973C159.6 141.164 159.6 153.569 159.6 161.887C159.6 163.061 160.879 164.142 161.91 164.027Z" fill="black" fill-opacity="0.7"/>
<path d="M147.657 131.542L147.657 154.371C147.657 157.373 150.088 159.807 153.086 159.807L159.6 159.807C162.598 159.807 165.029 157.373 165.029 154.371L165.029 131.542C165.029 128.54 162.598 126.106 159.6 126.106L153.086 126.106C150.088 126.106 147.657 128.54 147.657 131.542Z" fill="white"/>
<path d="M195.429 148.936C195.429 142.331 190.082 136.977 183.486 136.977C176.89 136.977 171.543 142.331 171.543 148.936C171.543 155.54 176.89 160.894 183.486 160.894C190.082 160.894 195.429 155.54 195.429 148.936Z" fill="#FF4F6D"/>
<path d="M195.429 138.064C195.429 131.46 190.082 126.106 183.486 126.106C176.89 126.106 171.543 131.46 171.543 138.064C171.543 144.669 176.89 150.023 183.486 150.023C190.082 150.023 195.429 144.669 195.429 138.064Z" fill="#FF4F6D"/>
</g>
<path fill-rule="evenodd" clip-rule="evenodd" d="M141.143 156.545C145.94 156.545 149.829 150.705 149.829 143.5C149.829 136.295 145.94 130.455 141.143 130.455" fill="black" fill-opacity="0.16"/>
<path d="M136.8 171.765C136.8 163.36 129.995 156.545 121.6 156.545C113.205 156.545 106.4 163.36 106.4 171.765C106.4 180.171 113.205 186.985 121.6 186.985C129.995 186.985 136.8 180.171 136.8 171.765Z" fill="white"/>
<path d="M136.8 115.235C136.8 106.829 129.995 100.015 121.6 100.015C113.205 100.015 106.4 106.829 106.4 115.235C106.4 123.64 113.205 130.455 121.6 130.455C129.995 130.455 136.8 123.64 136.8 115.235Z" fill="white"/>
<path d="M120.114 171.765C120.114 168.163 117.198 165.242 113.6 165.242C110.002 165.242 107.086 168.163 107.086 171.765C107.086 175.368 110.002 178.288 113.6 178.288C117.198 178.288 120.114 175.368 120.114 171.765Z" fill="black" fill-opacity="0.7"/>
<path d="M120.114 115.235C120.114 111.632 117.198 108.712 113.6 108.712C110.002 108.712 107.086 111.632 107.086 115.235C107.086 118.837 110.002 121.758 113.6 121.758C117.198 121.758 120.114 118.837 120.114 115.235Z" fill="black" fill-opacity="0.7"/>
<path d="M107.658 187.387C101.677 183.131 98.3232 171.463 100.788 161.412C101.074 160.246 100.362 159.069 99.1972 158.782C98.0326 158.496 96.8566 159.209 96.5706 160.375C93.708 172.047 97.5916 185.558 105.142 190.931C106.12 191.627 107.475 191.397 108.17 190.419C108.865 189.44 108.635 188.082 107.658 187.387Z" fill="black" fill-opacity="0.6"/>
<path d="M107.658 99.6129C101.677 103.869 98.3232 115.537 100.788 125.587C101.074 126.753 100.362 127.931 99.1972 128.217C98.0326 128.504 96.8566 127.79 96.5706 126.624C93.708 114.952 97.5916 101.441 105.142 96.0683C106.12 95.3727 107.475 95.6023 108.17 96.5811C108.865 97.5599 108.635 98.9173 107.658 99.6129Z" fill="black" fill-opacity="0.6"/>
<mask id="mask3" mask-type="alpha" maskUnits="userSpaceOnUse" x="0" y="0" width="304" height="287">
<path d="M3.42244e-06 0L0 287L304 287L304 3.62516e-06L3.42244e-06 0Z" fill="white"/>
</mask>
<g mask="url(#mask3)">
<mask id="mask4" mask-type="alpha" maskUnits="userSpaceOnUse" x="10" y="75" width="99" height="136">
<path fill-rule="evenodd" clip-rule="evenodd" d="M42.2873 88.4049C36.9128 82.5276 26.0154 81.1129 18.945 84.4501C10.2642 88.5468 9.17669 96.861 12.9946 104.829C16.5936 112.338 17.7926 119.023 16.0488 127.247C14.3756 135.138 11.4246 142.624 10.94 150.78C10.1438 164.179 15.1073 177.197 25.1118 186.329C27.0204 188.072 29.2027 189.475 31.4145 190.802C33.1843 191.864 35.0831 193.061 37.123 193.513C38.093 193.728 40.4862 193.328 41.2809 193.812C42.1391 194.335 42.9263 196.307 43.5631 197.148C44.8536 198.852 46.31 200.327 47.9572 201.692C51.4549 204.59 55.1084 206.186 59.4351 207.528C73.8153 211.988 90.9191 212.366 105.039 206.6C106.922 205.831 110.85 203.449 106.818 202.049C106.021 201.772 103.35 202.413 102.546 202.411C99.5927 202.406 80.0404 200.774 69.0873 193.663C65.522 191.348 52.171 180.647 52.0639 178.461C53.9019 177.303 65.645 165.546 64.2688 135.038C63.6478 121.274 57.4714 110.688 54.794 108.146C60.801 107.028 69.7941 94.0216 73.4944 92.0397C84.1838 86.3147 106.395 85.0447 106.354 82.8593C106.312 80.6738 100.667 79.105 99.5894 78.6555C91.5818 75.3162 81.5316 74.7477 72.9258 75.1038C61.8492 75.5684 49.8799 80.1463 42.2873 88.4049Z" fill="white"/>
</mask>
<g mask="url(#mask4)">
<path fill-rule="evenodd" clip-rule="evenodd" d="M42.2873 88.4049C36.9128 82.5276 26.0154 81.1129 18.945 84.4501C10.2642 88.5468 9.17669 96.861 12.9946 104.829C16.5936 112.338 17.7926 119.023 16.0488 127.247C14.3756 135.138 11.4246 142.624 10.94 150.78C10.1438 164.179 15.1073 177.197 25.1118 186.329C27.0204 188.072 29.2027 189.475 31.4145 190.802C33.1843 191.864 35.0831 193.061 37.123 193.513C38.093 193.728 40.4862 193.328 41.2809 193.812C42.1391 194.335 42.9263 196.307 43.5631 197.148C44.8536 198.852 46.31 200.327 47.9572 201.692C51.4549 204.59 55.1084 206.186 59.4351 207.528C73.8153 211.988 90.9191 212.366 105.039 206.6C106.922 205.831 110.85 203.449 106.818 202.049C106.021 201.772 103.35 202.413 102.546 202.411C99.5927 202.406 80.0404 200.774 69.0873 193.663C65.522 191.348 52.171 180.647 52.0639 178.461C53.9019 177.303 65.645 165.546 64.2688 135.038C63.6478 121.274 57.4714 110.688 54.794 108.146C60.801 107.028 69.7941 94.0216 73.4944 92.0397C84.1838 86.3147 106.395 85.0447 106.354 82.8593C106.312 80.6738 100.667 79.105 99.5894 78.6555C91.5818 75.3162 81.5316 74.7477 72.9258 75.1038C61.8492 75.5684 49.8799 80.1463 42.2873 88.4049Z" fill="#28354B"/>
<path d="M3.42244e-06 1.08707L0 288.087L304 288.087L304 1.08707L3.42244e-06 1.08707Z" fill="#A55728"/>
</g>
</g>
</g>
<defs>
<filter id="filter0_d" x="-10" y="-6" width="324" height="307" filterUnits="userSpaceOnUse" color-interpolation-filters="sRGB">
<feFlood flood-opacity="0" result="BackgroundImageFix"/>
<feColorMatrix in="SourceAlpha" type="matrix" values="0 0 0 0 0 0 0 0 0 0 0 0 0 0 0 0 0 0 127 0"/>
<feOffset dy="4"/>
<feGaussianBlur stdDeviation="5"/>
<feColorMatrix type="matrix" values="0 0 0 0 0 0 0 0 0 0 0 0 0 0 0 0 0 0 0.25 0"/>
<feBlend mode="normal" in2="BackgroundImageFix" result="effect1_dropShadow"/>
<feBlend mode="normal" in="SourceGraphic" in2="effect1_dropShadow" result="shape"/>
</filter>
<clipPath id="clip0">
<rect width="287" height="304" fill="white" transform="translate(0 287) rotate(-90)"/>
</clipPath>
</defs>
</svg>
