<svg width="1000" height="1089" viewBox="0 0 1000 1089" fill="none" xmlns="http://www.w3.org/2000/svg">
<g filter="url(#filter0_d)">
<path fill-rule="evenodd" clip-rule="evenodd" d="M916.423 355.416C1021.12 329.803 1129.38 215.76 1220.85 272.755C1310.13 328.386 1237.11 476.79 1270.96 576.336C1305.59 678.211 1457.69 754.233 1418.64 854.499C1378.78 956.821 1220.82 929.852 1118.08 968.792C1049.22 994.891 989.992 1048.29 916.423 1044.84C844.506 1041.47 792.824 981.92 728.048 950.523C643.621 909.601 529.937 912.459 479.795 833.205C427.572 750.664 428.239 634.274 473.057 547.495C516.066 464.22 617.896 436.484 703.939 399.208C771.954 369.741 844.416 373.031 916.423 355.416Z" fill="#924FE0"/>
</g>
<g filter="url(#filter1_d)">
<path fill-rule="evenodd" clip-rule="evenodd" d="M327.626 -174.784C392.174 -262.585 447.516 -367.232 550.519 -402.894C652.367 -438.155 759.495 -389.907 863.138 -360.189C964.909 -331.007 1087.66 -321.068 1145.38 -232.324C1202.43 -144.63 1149.78 -30.7573 1145.39 73.7224C1141.52 165.675 1167.44 262.392 1121.25 341.975C1074 423.377 981.508 460.571 896.894 501.832C803.504 547.372 707.174 619.645 606.733 592.871C506.256 566.088 471.546 445.002 400.13 369.414C320.059 284.666 178.809 239.187 163.417 123.658C148.041 8.25021 258.684 -81.0062 327.626 -174.784Z" fill="#5A6AFF"/>
</g>
<g clip-path="url(#clip0)">
<path d="M846.849 214.905C847.119 214.342 847.324 213.752 847.466 213.142C852.227 192.598 842.546 178.803 834.206 172.268C832.315 156.86 817.791 147.003 805.904 142.245C804.693 127.731 799.183 115.945 789.474 107.147C773.585 92.7514 750.819 90.8091 739.688 90.8091C739.573 90.8091 739.462 90.8091 739.347 90.8091C728.502 72.2722 703.686 71.4156 689.216 74.1033C680.728 71.2032 672.17 68.8966 663.749 67.2341C659.059 66.3102 654.496 69.3586 653.569 74.0561C652.641 78.7501 655.697 83.3093 660.394 84.2367C668.754 85.889 677.285 88.2462 685.739 91.2441C687.307 91.8039 689 91.8949 690.619 91.5139C690.909 91.4464 719.508 84.9448 725.781 102.598C727.113 106.338 730.829 108.692 734.781 108.321C735.054 108.294 762.349 105.896 777.888 120.039C783.354 125.016 786.729 131.437 788.109 139.52C776.417 140.08 758.181 144.187 748.688 162.984C746.53 167.256 748.239 172.466 752.512 174.628C753.766 175.259 755.102 175.559 756.414 175.559C759.58 175.559 762.632 173.819 764.156 170.801C772.148 154.985 792.007 156.573 795.612 157.005C798.815 158.057 817.818 164.832 817.052 176.446C816.826 179.885 818.661 183.133 821.726 184.714C821.756 184.728 824.832 186.458 827.499 190.09C831.003 194.858 832.153 200.715 830.932 207.52L830.349 208.296C816.897 209.773 796.667 218.237 793.905 243.259C793.383 248.017 796.812 252.3 801.57 252.826C801.894 252.859 802.215 252.876 802.532 252.876C806.892 252.876 810.645 249.595 811.134 245.161C812.884 229.305 826.501 226.152 832.372 225.531C870.346 253.385 843.541 318.344 841.767 322.508C832.365 340.482 820.566 349.678 805.776 350.518C799.436 345.22 782.838 333.441 753.83 326.491C749.173 325.375 744.496 328.245 743.38 332.898C742.267 337.555 745.134 342.232 749.791 343.345C774.576 349.284 788.726 359.039 793.946 363.234C793.879 365.612 793.565 367.962 792.988 370.245C786.824 394.734 753.679 407.578 719.1 398.872C713.378 397.428 707.834 395.442 702.624 392.963C700.061 391.743 697.063 391.857 694.598 393.267C692.136 394.673 690.518 397.202 690.268 400.028C689.277 411.247 689.759 422.055 691.695 432.273L668.939 436.057C667.968 432.61 666.993 428.58 665.938 424.2C660.853 403.141 653.508 372.761 631.913 347.834C649.89 343.456 667.186 340.566 683.487 339.228C688.258 338.837 691.809 334.652 691.415 329.883C691.024 325.112 686.835 321.568 682.07 321.955C660.526 323.722 637.426 328.032 613.403 334.76C591.379 337.741 575.955 336.547 574.228 336.395C536.662 330.75 526.171 308.052 528.612 290.304C529.004 287.461 527.962 284.608 525.83 282.686C523.699 280.764 520.759 280.022 517.97 280.703L511.687 282.241C500.731 281.698 473.346 277.456 461.02 263.104C455.665 256.865 453.615 249.332 454.758 240.072C455.197 236.497 453.382 233.024 450.199 231.348C450.162 231.328 446.473 229.106 445.566 225.191C444.487 220.527 447.616 214.943 450.432 211.081C452.135 208.744 452.56 205.709 451.565 202.995C451.497 202.813 445.107 184.377 452.405 169.074C456.465 160.559 464.248 154.28 475.541 150.416C478.812 149.296 481.098 146.4 481.368 142.953C481.378 142.842 482.481 131.852 490.487 125.883C496.017 121.762 503.996 120.707 514.196 122.747C516.51 123.206 518.907 122.71 520.843 121.364C522.779 120.019 524.084 117.945 524.455 115.615C524.485 115.426 528.366 97.3916 562.179 96.7509C567.308 103.755 578.625 122.157 570.229 138.643C568.057 142.909 569.756 148.129 574.019 150.301C575.28 150.942 576.622 151.245 577.944 151.245C581.101 151.245 584.146 149.515 585.677 146.511C588.799 140.377 590.236 134.226 590.533 128.288C595.21 126.298 602.494 124.16 608.307 125.89C612.088 127.009 614.994 129.754 617.196 134.273C618.697 137.355 621.783 139.146 624.996 139.146C626.268 139.146 627.562 138.863 628.787 138.266C633.089 136.172 634.877 130.982 632.779 126.679C628.453 117.803 621.698 111.784 613.241 109.272C604.234 106.598 595.068 108.304 588.287 110.59C586.024 102.855 582.466 96.1337 579.337 91.1868C583.417 89.4096 588.927 87.3391 595.712 85.5552C600.342 84.3412 603.111 79.5999 601.893 74.9733C600.676 70.3399 595.935 67.5781 591.308 68.7921C577.61 72.3902 568.226 77.0708 564.064 79.3942C528.963 79.401 515.394 94.7343 510.285 104.662C498.189 103.519 488.001 106.024 479.922 112.138C470.503 119.264 466.645 129.518 465.094 135.851C451.777 141.429 442.258 150.079 436.758 161.611C428.776 178.354 431.851 196.369 433.959 204.526C428.658 213.081 426.88 221.333 428.681 229.102C430.205 235.692 433.972 240.274 437.145 243.114C436.744 255.119 440.339 265.623 447.869 274.394C466.537 296.128 503.746 299.166 511.094 299.557C512.986 323.726 531.384 347.574 571.918 353.573C572.046 353.593 572.178 353.61 572.309 353.624C572.67 353.661 577.158 354.099 584.742 354.099C591.628 354.099 601.077 353.735 612.303 352.372C636.212 374.973 643.628 405.643 649.087 428.267C651.077 436.502 652.793 443.617 655.032 449.1C656.378 452.398 659.578 454.489 663.051 454.489C663.523 454.489 663.999 454.452 664.478 454.371L703.693 447.846C706.134 447.438 708.286 446.008 709.604 443.914C710.923 441.82 711.284 439.26 710.592 436.883C708.454 429.508 707.294 421.654 707.122 413.419C709.665 414.269 712.251 415.021 714.865 415.678C735.654 420.912 756.822 419.776 774.472 412.475C793.012 404.807 805.556 391.311 809.795 374.477C810.379 372.15 810.787 369.783 811.029 367.392C825.823 365.335 843.632 356.53 857.286 330.231C857.367 330.076 857.441 329.92 857.512 329.762C857.886 328.922 866.718 308.871 869.301 284.42C872.491 254.201 864.748 230.377 846.849 214.905Z" fill="white"/>
<path d="M629.592 189.439C629.683 189.941 631.936 201.885 640.222 213.607C642.198 216.403 644.619 219.323 647.546 222.122C645.988 231.025 632.371 235.897 632.051 236.009C627.532 237.55 625.111 242.456 626.635 246.982C627.856 250.6 631.228 252.883 634.846 252.883C635.767 252.883 636.701 252.735 637.618 252.424C645.631 249.723 657.271 242.996 662.421 232.185C669.158 235.226 677.282 237.196 687.038 237.196C687.658 237.196 688.289 237.186 688.923 237.172C693.708 237.047 697.488 233.071 697.363 228.286C697.245 223.575 693.391 219.839 688.704 219.839C688.629 219.839 688.555 219.842 688.481 219.842C653.707 220.716 646.929 187.807 646.635 186.296C645.762 181.605 641.257 178.496 636.559 179.359C631.852 180.216 628.733 184.731 629.592 189.439Z" fill="white"/>
<path d="M735.253 265.536C750.3 239.243 744.358 218.912 736.727 206.485C728.664 193.364 717.047 186.451 716.558 186.164C712.44 183.75 707.17 185.126 704.735 189.226C702.3 193.33 703.659 198.638 707.75 201.093C707.837 201.144 716.534 206.431 722.253 216.049C729.473 228.189 728.782 241.94 720.207 256.926C717.829 261.081 719.272 266.375 723.427 268.753C724.783 269.532 726.263 269.899 727.72 269.899C730.731 269.899 733.651 268.335 735.253 265.536Z" fill="white"/>
<path d="M827.108 285.792C831.003 283.01 831.907 277.598 829.125 273.703C826.343 269.808 820.93 268.904 817.035 271.686C808.585 277.722 800.896 279.992 794.182 278.427C784.065 276.077 778.319 265.69 778.184 265.448C775.959 261.236 770.749 259.61 766.517 261.816C762.271 264.031 760.625 269.265 762.841 273.507C763.181 274.158 770.691 288.25 785.687 293.916C783.003 304.518 781.294 323.227 796.961 336.328C798.583 337.683 800.552 338.348 802.515 338.348C804.993 338.348 807.452 337.289 809.168 335.242C812.237 331.57 811.751 326.103 808.079 323.031C798.515 315.032 801.203 301.908 803.088 295.966C810.915 295.008 818.954 291.616 827.108 285.792Z" fill="white"/>
<path d="M571.962 230.134C571.362 225.386 567.025 222.031 562.274 222.628C557.526 223.228 554.164 227.568 554.767 232.316C556.271 244.176 546.967 252.809 541.457 256.812C527.587 249.946 512.055 252.563 511.283 252.698C506.585 253.527 503.459 257.999 504.269 262.699C505.078 267.4 509.556 270.56 514.26 269.774C514.409 269.747 529.037 267.404 537.792 274.991C542.789 279.324 545.207 286.571 544.974 296.529C544.863 301.314 548.653 305.284 553.439 305.395C553.506 305.398 553.573 305.398 553.644 305.398C558.335 305.398 562.193 301.652 562.304 296.934C562.577 285.28 560.095 275.689 554.919 268.297C563.414 261.246 574.282 248.432 571.962 230.134Z" fill="white"/>
<path d="M490.463 184.701C489.522 186.953 488.092 188.97 486.288 190.804C481.587 195.596 475.686 197.377 475.464 197.444C470.877 198.716 468.169 203.45 469.41 208.053C470.452 211.918 473.953 214.464 477.77 214.464C478.519 214.464 479.277 214.366 480.036 214.16C480.583 214.012 491.468 210.974 499.875 201.626C505.662 205.922 512.46 208.165 519.909 208.165C521.983 208.165 524.104 207.993 526.269 207.642C536.089 206.06 543.444 201.43 544.25 200.908C548.266 198.304 549.412 192.939 546.809 188.923C544.206 184.907 538.841 183.76 534.821 186.363C534.774 186.394 529.729 189.526 523.514 190.531C517.269 191.54 512.338 190.117 508.275 186.083C510.238 178.614 510.002 170.291 507.536 161.217C506.285 156.597 501.527 153.869 496.904 155.123C492.284 156.378 489.556 161.136 490.81 165.756C492.8 173.094 492.746 179.231 490.625 184.323C490.571 184.448 490.517 184.573 490.463 184.701Z" fill="white"/>
<path d="M693.28 110.978C678.641 102.295 661.817 106.78 661.109 106.975C656.496 108.247 653.785 113.018 655.056 117.631C656.324 122.245 661.102 124.953 665.712 123.688C665.813 123.658 676.199 120.997 684.434 125.883C689.334 128.79 692.716 134.095 694.494 141.645C695.434 145.638 698.992 148.329 702.924 148.329C703.582 148.329 704.246 148.251 704.914 148.096C709.574 147 712.464 142.333 711.365 137.676C708.468 125.364 702.385 116.38 693.28 110.978Z" fill="white"/>
<path d="M661.885 274.381C655.71 284.99 646.787 290.672 635.369 291.269C626.197 291.744 618.636 288.787 618.451 288.709C614.033 286.902 608.988 289.006 607.164 293.417C605.333 297.841 607.434 302.909 611.855 304.737C612.873 305.159 621.668 308.656 633.309 308.656C634.023 308.656 634.752 308.642 635.49 308.612C647.863 308.143 665.088 303.334 676.867 283.098C679.275 278.963 677.872 273.656 673.734 271.248C669.6 268.84 664.292 270.243 661.885 274.381Z" fill="white"/>
<path d="M724.638 325.21C722.591 322.158 718.76 320.694 715.185 321.659C711.729 322.586 709.169 325.618 708.805 329.175C708.437 332.77 710.464 336.321 713.725 337.855C716.905 339.349 720.783 338.766 723.349 336.351C726.418 333.468 726.971 328.696 724.638 325.21Z" fill="white"/>
<path d="M619.81 75.8603C621.185 79.192 624.629 81.3772 628.227 81.2052C631.751 81.0332 634.88 78.6693 636.013 75.3308C637.163 71.9553 636.067 68.1177 633.312 65.8516C630.402 63.4573 626.139 63.2415 623.006 65.339C619.617 67.6085 618.248 72.08 619.81 75.8603Z" fill="white"/>
</g>
<defs>
<filter id="filter0_d" x="400" y="221" width="1065" height="868" filterUnits="userSpaceOnUse" color-interpolation-filters="sRGB">
<feFlood flood-opacity="0" result="BackgroundImageFix"/>
<feColorMatrix in="SourceAlpha" type="matrix" values="0 0 0 0 0 0 0 0 0 0 0 0 0 0 0 0 0 0 127 0"/>
<feOffset dy="4"/>
<feGaussianBlur stdDeviation="20"/>
<feColorMatrix type="matrix" values="0 0 0 0 0 0 0 0 0 0 0 0 0 0 0 0 0 0 0.25 0"/>
<feBlend mode="normal" in2="BackgroundImageFix" result="effect1_dropShadow"/>
<feBlend mode="normal" in="SourceGraphic" in2="effect1_dropShadow" result="shape"/>
</filter>
<filter id="filter1_d" x="0" y="-648" width="1439.54" height="1451.82" filterUnits="userSpaceOnUse" color-interpolation-filters="sRGB">
<feFlood flood-opacity="0" result="BackgroundImageFix"/>
<feColorMatrix in="SourceAlpha" type="matrix" values="0 0 0 0 0 0 0 0 0 0 0 0 0 0 0 0 0 0 127 0"/>
<feOffset dy="4"/>
<feGaussianBlur stdDeviation="20"/>
<feColorMatrix type="matrix" values="0 0 0 0 0 0 0 0 0 0 0 0 0 0 0 0 0 0 0.25 0"/>
<feBlend mode="normal" in2="BackgroundImageFix" result="effect1_dropShadow"/>
<feBlend mode="normal" in="SourceGraphic" in2="effect1_dropShadow" result="shape"/>
</filter>
<clipPath id="clip0">
<rect width="442" height="442" fill="white" transform="translate(428 38.0001)"/>
</clipPath>
</defs>
</svg>
