<svg width="979" height="853" viewBox="0 0 979 853" fill="none" xmlns="http://www.w3.org/2000/svg">
<g filter="url(#filter0_d)">
<path fill-rule="evenodd" clip-rule="evenodd" d="M1273.51 968.885C1249.66 1097.57 1258.25 1257.09 1150.75 1331.71C1043.25 1406.34 896.305 1345.56 768.039 1319.78C662.037 1298.48 556.299 1293.84 467.546 1232.09C375.243 1167.86 311.375 1052.23 249.009 958.642C160.965 826.522 30.3741 701.37 41.3625 542.943C53.1104 373.566 163.582 213.878 306.969 123.001C447.776 33.7586 634.59 11.5235 791.585 67.4591C932.709 117.74 982.956 283.605 1079.45 398.228C1149.17 481.054 1243.08 542.685 1277.95 645.205C1313.55 749.913 1293.66 860.122 1273.51 968.885Z" fill="#5A6AFF"/>
</g>
<defs>
<filter id="filter0_d" x="0.71167" y="0.908203" width="1336.86" height="1410.71" filterUnits="userSpaceOnUse" color-interpolation-filters="sRGB">
<feFlood flood-opacity="0" result="BackgroundImageFix"/>
<feColorMatrix in="SourceAlpha" type="matrix" values="0 0 0 0 0 0 0 0 0 0 0 0 0 0 0 0 0 0 127 0"/>
<feOffset dy="4"/>
<feGaussianBlur stdDeviation="20"/>
<feColorMatrix type="matrix" values="0 0 0 0 0 0 0 0 0 0 0 0 0 0 0 0 0 0 0.25 0"/>
<feBlend mode="normal" in2="BackgroundImageFix" result="effect1_dropShadow"/>
<feBlend mode="normal" in="SourceGraphic" in2="effect1_dropShadow" result="shape"/>
</filter>
</defs>
</svg>
