<svg width="979" height="1016" viewBox="0 0 979 1016" fill="none" xmlns="http://www.w3.org/2000/svg">
<g filter="url(#filter0_d)">
<path fill-rule="evenodd" clip-rule="evenodd" d="M1273.51 968.506C1249.66 1097.19 1258.25 1256.71 1150.75 1331.33C1043.25 1405.96 896.305 1345.18 768.039 1319.41C662.037 1298.1 556.299 1293.46 467.546 1231.71C375.243 1167.49 311.375 1051.85 249.009 958.263C160.965 826.143 30.3741 700.991 41.3625 542.564C53.1103 373.187 163.582 213.499 306.969 122.622C447.776 33.3796 634.59 11.1445 791.585 67.0801C932.709 117.361 982.955 283.226 1079.45 397.849C1149.17 480.675 1243.08 542.306 1277.95 644.826C1313.55 749.534 1293.66 859.743 1273.51 968.506Z" fill="#5A6AFF"/>
</g>
<defs>
<filter id="filter0_d" x="0.71167" y="0.529297" width="1336.86" height="1410.71" filterUnits="userSpaceOnUse" color-interpolation-filters="sRGB">
<feFlood flood-opacity="0" result="BackgroundImageFix"/>
<feColorMatrix in="SourceAlpha" type="matrix" values="0 0 0 0 0 0 0 0 0 0 0 0 0 0 0 0 0 0 127 0"/>
<feOffset dy="4"/>
<feGaussianBlur stdDeviation="20"/>
<feColorMatrix type="matrix" values="0 0 0 0 0 0 0 0 0 0 0 0 0 0 0 0 0 0 0.25 0"/>
<feBlend mode="normal" in2="BackgroundImageFix" result="effect1_dropShadow"/>
<feBlend mode="normal" in="SourceGraphic" in2="effect1_dropShadow" result="shape"/>
</filter>
</defs>
</svg>
